<svg id="Capa_1" data-name="Capa 1" xmlns="http://www.w3.org/2000/svg" viewBox="0 0 184.46 48.09"><defs><style>.cls-1{fill:#cc3046;}</style></defs><path class="cls-1" d="M16.75,22.17c0,3.44,1.22,6.58,4.46,7.09a20,20,0,0,0,5.87-6c3.79.76,5.62,3,5.62,5.22,0,5.16-6.63,8.15-12.3,8.15-8.71,0-14.23-4.51-14.23-14.38,0-10.63,7.8-20.6,19.69-20.6,6.33,0,10,3.19,10,6.17,0,2.69-2.28,4.91-6.84,6.84-1.47-4.15-3.34-5.82-5-5.82C19.59,8.86,16.75,15.74,16.75,22.17Z" transform="translate(-6.17 -0.91)"/><path class="cls-1" d="M44.39.91c3.14,0,4.46,1.67,4.46,4.25,0,3.6-1.62,8.66-2.79,11.49h.25c2.69-5.46,6.89-6.12,8.81-6.12,3.34,0,5.93,1.67,6.89,4.4-.86,2.63-2.84,8.66-2.84,14.12a4.66,4.66,0,0,0,2,3.65,8.4,8.4,0,0,1-7,4.15c-3.64,0-4.91-1.82-4.91-4.91s1.47-8.61,2.84-13.77L51.73,18c-2.63.25-4.76,3.09-5.52,6.12A58.25,58.25,0,0,0,45.05,36.5c-2.08.25-4.15.35-4.81.35-3.7,0-4.91-1.87-4.91-4.25a23.26,23.26,0,0,1,1.26-6,52.46,52.46,0,0,0,2-15.24c0-1.57-.35-5.72-1.62-7.14C38.21,2.22,41.45.91,44.39.91Z" transform="translate(-6.17 -0.91)"/><path class="cls-1" d="M78.46,10.53C83.52,10.53,89,12.75,89,21.06c0,10-7,15.79-14.53,15.79-6,0-11.24-3-11.24-10.07C63.27,16.7,70.06,10.53,78.46,10.53ZM73.09,26.88c0,2.48.61,4.35,3,4.81,1.72-1,3.44-5.57,3.44-10.73,0-2.49-.61-4.36-3-4.81C74.81,17.16,73.09,21.71,73.09,26.88Z" transform="translate(-6.17 -0.91)"/><path class="cls-1" d="M103.82,5.36c0,3.4-1.16,8-2,12.05a51.93,51.93,0,0,0-1.27,9.37c0,4.76,2.23,6.48,2.23,6.48a7.69,7.69,0,0,1-6.53,3.39c-4.46,0-5.47-3.09-5.47-6.13,0-3.49,1.26-8.55,2-13.26a65.51,65.51,0,0,0,.91-8.5c0-2.33-.2-4.11-1.21-5.37A9.55,9.55,0,0,1,98.91.91C102.45.91,103.82,2.88,103.82,5.36Z" transform="translate(-6.17 -0.91)"/><path class="cls-1" d="M118.09,5.36c0,3.4-1.16,8-2,12.05a51.93,51.93,0,0,0-1.27,9.37c0,4.76,2.23,6.48,2.23,6.48a7.67,7.67,0,0,1-6.53,3.39c-4.45,0-5.46-3.09-5.46-6.13,0-3.49,1.26-8.55,2-13.26a67.32,67.32,0,0,0,.91-8.5c0-2.33-.2-4.11-1.21-5.37A9.54,9.54,0,0,1,113.18.91C116.73.91,118.09,2.88,118.09,5.36Z" transform="translate(-6.17 -0.91)"/><path class="cls-1" d="M142.85,5.87c0,6.18-1.77,11.64-1.77,17.72,0,2.43.3,6.12,2.78,6.12,5,0,6.43-9.06,6.43-19.69a13.8,13.8,0,0,0-1.06-6.12A11.16,11.16,0,0,1,156,1.67c2.53,0,4.56,1.16,4.56,4.4,0,15.8-3,30.58-17.57,30.58-9.72,0-11.69-6-11.69-12.1,0-5.52,1.46-10.33,1.46-16a18.83,18.83,0,0,0-.7-4.71,12.16,12.16,0,0,1,6-2.12C142.14,1.67,142.85,3.44,142.85,5.87Z" transform="translate(-6.17 -0.91)"/><path class="cls-1" d="M174.23,13.72a8.08,8.08,0,0,1-.45,2.17l.3.1c1.72-3.08,3.7-5.46,8.41-5.46,5,0,8.15,3.34,8.15,9.16,0,9.62-5.07,17.16-12.91,17.16a7.29,7.29,0,0,1-6-2.83l-.15,0c.1,1.11.36,3.59.36,4.7,0,6.43-1.57,10.23-5.22,10.23-1.62,0-5.11-.46-7.19-2.88,3.95-5.47,5.32-19.09,5.32-24,0-2.48-.71-6.33-2-7.29,1.57-3.14,4.51-4.25,7.75-4.25C172.92,10.53,174.23,11.54,174.23,13.72Zm6,3.29C178,17,175.4,19.74,173,29a4.52,4.52,0,0,0,3.14,1.67c2.88,0,4.7-6.37,4.7-10.47A5.87,5.87,0,0,0,180.21,17Z" transform="translate(-6.17 -0.91)"/></svg>